# xmcd
#
# Track frame offsets:
#	150
#	12795
#	27762
#	41450
#	53817
#	63845
#	79068
#	96922
#	113570
#	127429
#	142371
#	160513
#	172565
#	190466
#	201417
#	231940
#
# Disc length: 3098 seconds
#
# Revision: 1
# Processed by: cddbd v1.5.1PL2 Copyright (c) Steve Scherf et al.
# Submitted via: audiograbber 1.83.01
#
DISCID=d50c1810
DTITLE=Various Artist - ASK-46-R Country Outlaws:Volume 1 Disk 2
DYEAR=1900
DGENRE=
TTITLE0=merle haggard - Okie From Muskogee
TTITLE1=Rosanne Cash - Seven Year Ache
TTITLE2=Tammy Wynette - DIVORCE
TTITLE3=Tammy Wynette - Stand By Your Mind
TTITLE4=Tammy Wynette - Your Good Girl Gonna Go Bad
TTITLE5=Tanya Tucker - A Memory Like I'm Gonna Be
TTITLE6=Tanya Tucker - I'll Come Back, As Another Woman
TTITLE7=Tanya Tucker - Old Weakness
TTITLE8=Tanya Tucker - Texas When I Die
TTITLE9=Waylon Jennings - Good Hearted Woman
TTITLE10=Waylon Jennings - I've Always Been Crazy
TTITLE11=Waylon Jennings/Willie Nelson - Up To Be Cowboys
TTITLE12=Willie Nelson - Always On My Mind
TTITLE13=Willie Nelson - On The Road Again
TTITLE14=Willie Nelson - Seven Spanish Angels
TTITLE15=data track - Data Track
EXTD=
EXTT0=
EXTT1=
EXTT2=
EXTT3=
EXTT4=
EXTT5=
EXTT6=
EXTT7=
EXTT8=
EXTT9=
EXTT10=
EXTT11=
EXTT12=
EXTT13=
EXTT14=
EXTT15=
PLAYORDER=
